<svg xmlns="http://www.w3.org/2000/svg" viewBox="0 0 48 48">
  <g stroke="#0b5cab" stroke-width="2" fill="none" stroke-linecap="round" stroke-linejoin="round">
  <g transform="rotate(0 24 24)">
    <line x1="24" y1="24" x2="24" y2="5"/>
    <line x1="24" y1="7.5" x2="19.5" y2="12"/><line x1="24" y1="7.5" x2="28.5" y2="12"/>
    <line x1="24" y1="13.5" x2="20" y2="17.5"/><line x1="24" y1="13.5" x2="28" y2="17.5"/>
    <line x1="24" y1="19" x2="21" y2="22"/><line x1="24" y1="19" x2="27" y2="22"/>
  </g>
  <g transform="rotate(60 24 24)">
    <line x1="24" y1="24" x2="24" y2="5"/>
    <line x1="24" y1="7.5" x2="19.5" y2="12"/><line x1="24" y1="7.5" x2="28.5" y2="12"/>
    <line x1="24" y1="13.5" x2="20" y2="17.5"/><line x1="24" y1="13.5" x2="28" y2="17.5"/>
    <line x1="24" y1="19" x2="21" y2="22"/><line x1="24" y1="19" x2="27" y2="22"/>
  </g>
  <g transform="rotate(120 24 24)">
    <line x1="24" y1="24" x2="24" y2="5"/>
    <line x1="24" y1="7.5" x2="19.5" y2="12"/><line x1="24" y1="7.5" x2="28.5" y2="12"/>
    <line x1="24" y1="13.5" x2="20" y2="17.5"/><line x1="24" y1="13.5" x2="28" y2="17.5"/>
    <line x1="24" y1="19" x2="21" y2="22"/><line x1="24" y1="19" x2="27" y2="22"/>
  </g>
  <g transform="rotate(180 24 24)">
    <line x1="24" y1="24" x2="24" y2="5"/>
    <line x1="24" y1="7.5" x2="19.5" y2="12"/><line x1="24" y1="7.5" x2="28.5" y2="12"/>
    <line x1="24" y1="13.5" x2="20" y2="17.5"/><line x1="24" y1="13.5" x2="28" y2="17.5"/>
    <line x1="24" y1="19" x2="21" y2="22"/><line x1="24" y1="19" x2="27" y2="22"/>
  </g>
  <g transform="rotate(240 24 24)">
    <line x1="24" y1="24" x2="24" y2="5"/>
    <line x1="24" y1="7.5" x2="19.5" y2="12"/><line x1="24" y1="7.5" x2="28.5" y2="12"/>
    <line x1="24" y1="13.5" x2="20" y2="17.5"/><line x1="24" y1="13.5" x2="28" y2="17.5"/>
    <line x1="24" y1="19" x2="21" y2="22"/><line x1="24" y1="19" x2="27" y2="22"/>
  </g>
  <g transform="rotate(300 24 24)">
    <line x1="24" y1="24" x2="24" y2="5"/>
    <line x1="24" y1="7.5" x2="19.5" y2="12"/><line x1="24" y1="7.5" x2="28.5" y2="12"/>
    <line x1="24" y1="13.5" x2="20" y2="17.5"/><line x1="24" y1="13.5" x2="28" y2="17.5"/>
    <line x1="24" y1="19" x2="21" y2="22"/><line x1="24" y1="19" x2="27" y2="22"/>
  </g></g>
</svg>